<svg xmlns="http://www.w3.org/2000/svg" xmlns:xlink="http://www.w3.org/1999/xlink" width="380px" height="220px" 
	 y="0px" viewBox="0 0 380 220">
<style type="text/css">
	.st0{fill:#319F2D;}
</style>
<path class="st0" d="M90.78,51.57c10.99,2.49,21.29,6.09,30.62,10.58c9.08-4.38,19.06-7.97,29.7-10.55C163.7,48.55,176.79,47,190,47
	c13.21,0,26.3,1.55,38.91,4.6c10.64,2.58,20.62,6.17,29.7,10.55c9.33-4.48,19.62-8.09,30.62-10.58
	c39.24-8.87,75.81-10.34,90.78-10.54V0H0v41.03C14.97,41.23,51.54,42.7,90.78,51.57z"/>
<path class="st0" d="M224.5,126.5c0,28.02,21.69,35.5,34.5,35.5s34.5-7.48,34.5-35.5c0-16.2-13.66-33.01-34.72-45.07
	C238.14,93.4,224.5,110.31,224.5,126.5z"/>
<path class="st0" d="M292.97,68.15c-5.54,1.25-10.91,2.86-16.03,4.76c20.75,14.71,33.56,34.07,33.56,53.59
	c0,36.07-26.7,52.5-51.5,52.5s-51.5-16.43-51.5-52.5c0-19.76,12.54-39.08,32.9-53.64c-4.95-1.84-10.13-3.44-15.5-4.74
	C213.61,65.39,201.86,64,190,64c-11.86,0-23.61,1.39-34.9,4.12c-5.37,1.3-10.55,2.89-15.5,4.74c20.36,14.56,32.9,33.88,32.9,53.64
	c0,36.07-26.7,52.5-51.5,52.5s-51.5-16.43-51.5-52.5c0-19.52,12.81-38.87,33.56-53.59c-5.13-1.9-10.49-3.51-16.03-4.76
	C49.48,59.66,14.47,58.23,0,58.03V220h380V58.03C365.53,58.23,330.52,59.66,292.97,68.15z"/>
<path class="st0" d="M86.5,126.5c0,28.02,21.69,35.5,34.5,35.5s34.5-7.48,34.5-35.5c0-16.19-13.65-33.1-34.28-45.07
	C100.16,93.49,86.5,110.29,86.5,126.5z"/>
</svg>
